<?xml version="1.0" standalone="no"?>
<!DOCTYPE svg PUBLIC "-//W3C//DTD SVG 20010904//EN"
 "http://www.w3.org/TR/2001/REC-SVG-20010904/DTD/svg10.dtd">
<svg version="1.0" xmlns="http://www.w3.org/2000/svg"
 width="512.000000pt" height="512.000000pt" viewBox="0 0 512.000000 512.000000"
 preserveAspectRatio="xMidYMid meet">
<metadata>
Created by potrace 1.14, written by Peter Selinger 2001-2017
</metadata>
<g transform="translate(0.000000,512.000000) scale(0.100000,-0.100000)"
fill="#000000" stroke="none">
<path d="M4450 4000 c0 -5 5 -10 10 -10 6 0 10 5 10 10 0 6 -4 10 -10 10 -5 0
-10 -4 -10 -10z"/>
<path d="M4179 3986 c-2 -2 -42 -7 -89 -11 -78 -6 -121 -15 -73 -15 12 0 23
-6 26 -14 3 -8 18 -16 34 -18 17 -2 28 -9 28 -18 0 -12 -23 -17 -110 -24 -60
-5 -112 -12 -115 -17 -3 -4 -62 -10 -130 -13 -153 -7 -195 -10 -239 -21 -23
-6 -32 -5 -28 3 8 12 -35 3 -43 -9 -3 -4 -36 -11 -73 -15 -59 -6 -67 -5 -67
10 0 14 3 15 23 5 21 -12 21 -11 5 8 -10 11 -18 26 -18 34 1 8 10 2 24 -14 17
-21 30 -28 47 -24 22 4 22 4 -3 6 -27 1 -33 9 -28 41 1 8 -1 12 -5 8 -4 -4
-15 2 -24 12 -13 16 -24 18 -58 13 -30 -4 -43 -10 -43 -22 -1 -14 -2 -14 -11
1 -17 30 -108 16 -206 -33 -122 -60 -186 -128 -305 -325 -54 -88 -108 -169
-120 -180 -18 -16 -59 -26 -175 -44 -84 -13 -153 -27 -153 -32 0 -4 -6 -5 -13
-2 -7 2 -46 -2 -86 -11 -40 -8 -74 -15 -77 -15 -2 0 -4 9 -4 20 0 13 7 20 20
20 10 0 41 5 68 10 37 8 52 18 66 40 9 17 14 35 11 40 -9 14 -32 12 -38 -2 -5
-12 -11 27 -10 60 1 14 -68 15 -182 2 -55 -7 -44 -7 48 -4 94 4 117 2 117 -9
0 -10 -35 -16 -137 -25 -76 -7 -144 -12 -151 -12 -25 0 -6 25 24 31 19 5 7 7
-38 8 l-67 1 5 28 c8 39 -22 73 -58 65 -29 -5 -44 -32 -39 -70 3 -29 -25 -43
-96 -45 l-58 -2 68 -5 c126 -11 79 -37 -75 -43 -82 -3 -93 -1 -96 15 -3 13 4
17 30 18 25 1 27 3 9 6 -12 3 -34 2 -47 -1 -21 -6 -23 -9 -14 -27 6 -11 10
-32 8 -47 l-3 -27 -33 33 c-39 37 -36 36 -56 16 -15 -14 -16 -13 -16 9 0 29
-26 54 -69 67 -29 8 -33 7 -42 -18 -13 -33 -4 -151 15 -197 14 -33 16 -34 47
-23 18 6 40 25 51 44 22 37 28 40 46 22 7 -7 40 -11 85 -10 56 2 77 -1 87 -13
7 -8 18 -15 25 -15 16 0 31 -59 19 -69 -13 -11 -325 -91 -349 -89 -11 1 -60
-13 -108 -30 -49 -18 -90 -32 -92 -32 -3 0 -23 27 -45 60 -27 39 -48 60 -60
60 -11 0 -20 -7 -20 -15 0 -8 -7 -15 -15 -15 -9 0 -19 -8 -22 -17 -4 -10 -10
-20 -14 -23 -3 -3 -13 -27 -20 -54 -8 -27 -19 -51 -24 -53 -6 -1 -21 13 -35
33 -30 45 -35 34 -16 -37 13 -50 12 -55 -5 -71 -21 -21 -29 -22 -29 -7 0 6
-10 19 -22 28 -16 13 -21 29 -22 66 -1 31 4 50 12 52 22 8 13 33 -13 33 -26 0
-36 -23 -51 -118 -8 -50 -20 -61 -39 -36 -15 20 -18 15 -15 -28 1 -16 -3 -28
-8 -28 -14 0 -32 57 -25 76 4 12 1 15 -13 12 -24 -4 -45 -62 -39 -104 6 -36
-15 -53 -35 -28 -10 11 -8 14 11 15 16 1 18 3 7 6 -26 7 -77 -25 -84 -52 -4
-18 -13 -25 -31 -25 -14 0 -23 -5 -21 -12 5 -15 106 -51 140 -49 22 1 28 -5
38 -36 17 -50 28 -63 56 -63 18 0 29 9 41 35 9 20 21 34 26 32 5 -1 23 -35 39
-75 l31 -72 39 0 c39 0 40 1 65 60 15 33 30 59 35 58 5 -2 28 -37 51 -78 41
-73 44 -75 77 -72 19 2 38 6 41 8 4 2 17 33 30 69 19 55 26 64 43 60 56 -12
188 -25 197 -19 6 3 67 3 136 -1 l125 -7 -5 -51 c-6 -64 7 -111 37 -135 13
-10 25 -27 27 -38 6 -27 49 -32 56 -6 3 11 18 26 34 32 28 12 69 78 69 112 0
9 20 28 44 42 40 23 55 26 147 26 l103 0 45 -47 c44 -46 49 -56 104 -243 33
-107 115 -383 185 -613 l126 -418 -19 -67 c-33 -119 -32 -139 6 -172 53 -46
68 -40 139 50 46 58 104 113 223 206 176 140 259 193 482 309 83 42 156 82
163 87 7 6 27 18 45 27 41 21 47 48 13 61 -14 5 -26 16 -26 24 0 9 -24 18 -79
26 l-79 13 -171 354 c-94 194 -171 362 -171 373 0 11 6 20 13 20 14 0 47 31
47 43 0 4 -7 7 -17 7 -13 0 -11 4 7 20 31 27 58 25 72 -5 15 -34 25 -31 45 10
10 20 27 38 40 41 12 3 27 12 34 20 13 15 44 20 34 5 -9 -16 248 56 483 134
123 41 233 75 245 75 12 0 40 11 62 25 22 13 60 34 85 45 25 12 52 28 61 36 9
8 20 14 25 12 15 -4 82 22 94 38 7 7 21 14 31 14 24 0 89 31 89 43 0 5 7 6 16
3 9 -4 27 1 40 9 50 33 18 74 -72 93 -33 6 -72 12 -87 12 -14 0 -28 4 -31 9
-4 5 -30 12 -59 16 -28 4 -85 15 -124 26 -40 10 -81 19 -92 19 -11 0 -21 5
-23 11 -2 6 -36 12 -78 14 -41 1 -130 10 -198 19 -67 10 -127 14 -132 11 -6
-3 -10 -1 -10 4 0 6 -5 11 -10 11 -19 0 -82 64 -96 97 -20 46 -17 107 6 152
33 65 71 77 335 101 127 11 235 23 242 25 7 2 23 26 37 53 15 30 46 66 78 92
29 23 52 47 50 52 -1 5 2 7 7 4 10 -6 101 29 101 39 0 3 -12 10 -26 15 -21 8
-29 7 -41 -7 -14 -17 -14 -17 -9 0 5 15 -3 17 -73 17 -43 0 -80 -2 -82 -4z
m81 -65 c0 -5 -13 -11 -30 -13 -29 -4 -37 1 -23 15 10 10 53 8 53 -2z m-1230
-501 c11 -7 5 -9 -22 -7 -21 1 -38 5 -38 10 0 10 42 8 60 -3z m-1284 -25 c9
-14 14 -28 11 -31 -9 -9 -57 27 -57 42 0 23 28 16 46 -11z m1142 -10 c9 -19
19 -25 42 -25 16 0 30 -5 30 -11 0 -20 -59 -3 -79 23 -23 28 -26 38 -13 38 5
0 14 -11 20 -25z m-1053 5 c-3 -5 -11 -10 -16 -10 -6 0 -7 5 -4 10 3 6 11 10
16 10 6 0 7 -4 4 -10z m1175 0 c0 -5 -4 -10 -10 -10 -5 0 -10 5 -10 10 0 6 5
10 10 10 6 0 10 -4 10 -10z m-830 -10 c0 -5 -4 -10 -10 -10 -5 0 -10 5 -10 10
0 6 5 10 10 10 6 0 10 -4 10 -10z m1410 1 c0 -5 15 -19 34 -30 18 -12 41 -36
50 -54 8 -17 16 -26 16 -19 0 7 -5 23 -11 35 -10 21 -10 21 5 3 25 -31 31 -83
12 -111 -13 -20 -25 -25 -55 -25 -58 0 -145 43 -126 62 3 3 -6 16 -20 29 -13
13 -25 34 -25 47 0 35 43 72 85 72 19 0 35 -4 35 -9z m-761 -139 c-33 -161
-48 -202 -80 -221 -21 -11 -29 -24 -29 -43 0 -25 4 -28 31 -28 22 0 40 10 65
35 19 20 34 39 34 43 0 4 17 26 38 47 20 22 47 53 59 70 12 16 24 27 28 23 9
-9 -122 -204 -152 -228 -13 -10 -40 -21 -60 -25 -43 -8 -63 10 -63 58 l0 30
-86 -7 c-47 -4 -97 -11 -110 -16 -13 -5 -92 -12 -174 -15 -187 -6 -198 -8
-192 -42 5 -24 7 -25 61 -19 31 3 124 10 206 16 83 6 169 12 192 14 41 3 41 3
30 -21 -10 -23 -15 -25 -59 -19 -31 4 -48 3 -48 -4 0 -5 -9 -10 -20 -10 -11 0
-20 4 -20 9 0 6 -11 7 -27 1 -16 -5 -94 -10 -175 -12 l-148 -3 -8 40 -8 40
-54 2 c-30 1 -63 2 -72 2 -26 1 -22 19 5 23 16 2 21 9 19 26 -2 16 2 22 17 22
11 0 24 -7 29 -17 12 -20 98 -20 357 1 94 7 176 11 183 9 15 -6 16 9 0 25 -9
9 -7 13 7 18 11 5 22 1 30 -9 17 -23 87 -23 107 1 8 9 28 69 43 132 34 141 43
166 55 154 5 -5 1 -47 -11 -102z m-859 83 c-166 -19 -242 -22 -244 -10 -1 6
48 12 119 15 212 10 249 8 125 -5z m1120 -16 c0 -5 4 -8 9 -4 5 3 17 -5 25
-17 13 -18 26 -23 64 -23 65 0 64 -24 -3 -45 -28 -8 -72 -30 -97 -47 -26 -18
-50 -33 -55 -33 -4 1 -26 16 -48 35 l-39 33 19 36 c11 20 22 36 25 36 3 0 10
-15 15 -32 13 -42 54 -66 91 -53 15 6 29 16 32 23 3 10 -4 10 -28 -3 -28 -15
-34 -15 -55 -1 -28 19 -41 52 -26 70 6 7 8 16 4 19 -3 4 -1 7 6 7 7 0 9 -9 5
-26 -5 -19 -4 -25 5 -20 6 4 11 1 11 -8 0 -19 14 -28 34 -20 24 9 19 31 -10
50 -19 13 -22 19 -12 25 18 12 28 11 28 -2z m-1470 -9 c0 -5 -11 -10 -25 -10
-14 0 -25 5 -25 10 0 6 11 10 25 10 14 0 25 -4 25 -10z m100 -30 c0 -5 -2 -10
-4 -10 -3 0 -8 5 -11 10 -3 6 -1 10 4 10 6 0 11 -4 11 -10z m1696 -5 c4 -8 3
-31 -1 -51 l-6 -37 -15 28 c-19 36 -18 75 1 75 9 0 18 -7 21 -15z m-656 -30
c0 -55 -20 -86 -68 -106 -24 -11 -58 -19 -77 -19 -18 0 -49 -7 -69 -15 -20 -9
-80 -18 -134 -20 -53 -3 -120 -10 -149 -15 -28 -6 -97 -12 -152 -13 -56 -1
-101 -5 -101 -9 0 -7 -98 -4 -103 3 -21 26 -47 69 -47 76 0 6 26 17 58 26 70
19 297 77 325 83 11 2 23 8 27 14 4 6 13 5 25 -3 15 -12 23 -12 49 2 40 20
109 28 279 30 l137 1 0 -35z m1385 -15 c3 -5 1 -10 -4 -10 -6 0 -11 5 -11 10
0 6 2 10 4 10 3 0 8 -4 11 -10z m15 -35 c0 -8 -4 -15 -9 -15 -13 0 -22 16 -14
24 11 11 23 6 23 -9z m-730 -35 c6 -11 8 -20 6 -20 -3 0 -10 9 -16 20 -6 11
-8 20 -6 20 3 0 10 -9 16 -20z m-1638 -85 c9 -21 9 -29 -3 -40 -20 -20 -309
-91 -412 -102 -52 -5 -52 -5 -65 29 -16 46 -15 56 7 68 31 16 165 42 291 55
172 18 169 19 182 -10z m-819 -9 c27 -27 54 -133 37 -150 -7 -7 -10 -6 -10 2
0 7 -11 12 -25 12 -29 0 -43 23 -52 86 -6 43 -4 47 12 41 14 -6 16 -3 12 13
-7 26 -3 25 26 -4z m2157 5 c0 -20 -13 -41 -25 -41 -18 0 -28 17 -21 35 6 16
46 21 46 6z m-710 -16 c0 -8 -4 -15 -9 -15 -13 0 -22 16 -14 24 11 11 23 6 23
-9z m1590 -34 c-63 -16 -100 -17 -83 0 7 7 57 14 123 17 14 0 -4 -7 -40 -17z
m-2724 -41 c9 -26 9 -37 0 -42 -19 -13 -48 -9 -68 9 -10 9 -21 13 -26 8 -4 -4
-1 -10 6 -12 26 -10 10 -22 -43 -34 -59 -13 -78 -6 -88 31 -5 21 4 25 113 59
36 11 72 19 80 18 8 -1 20 -18 26 -37z m2621 24 c-3 -3 -12 -4 -19 -1 -8 3 -5
6 6 6 11 1 17 -2 13 -5z m-1947 -14 c0 -5 -5 -10 -11 -10 -5 0 -7 5 -4 10 3 6
8 10 11 10 2 0 4 -4 4 -10z m1229 -45 c17 -19 35 -35 41 -35 5 0 10 -5 10 -11
0 -5 -5 -7 -10 -4 -6 4 -24 0 -40 -9 -23 -11 -30 -11 -30 -2 0 19 -47 59 -60
51 -9 -6 -9 -2 -1 13 11 20 25 30 47 31 7 1 26 -15 43 -34z m261 17 c0 -5 -8
-16 -17 -25 -21 -18 -143 -35 -143 -19 0 14 25 22 68 22 20 0 46 7 56 15 22
17 36 19 36 7z m125 -12 c-28 -12 -47 -12 -40 0 3 6 18 10 33 9 24 0 25 -1 7
-9z m-295 -31 c0 -6 -4 -7 -10 -4 -5 3 -10 11 -10 16 0 6 5 7 10 4 6 -3 10
-11 10 -16z m-1960 -40 c0 -37 -18 -27 -22 12 -3 35 -2 38 9 23 7 -10 13 -26
13 -35z m460 31 c0 -5 -7 -10 -15 -10 -8 0 -15 5 -15 10 0 6 7 10 15 10 8 0
15 -4 15 -10z m1246 -19 c-4 -6 -18 -11 -32 -11 -14 0 -32 -7 -41 -15 -12 -13
-37 -15 -124 -13 -117 3 -145 18 -57 30 29 4 96 14 148 21 92 13 119 10 106
-12z m-1002 0 c6 -8 -25 -21 -51 -21 -22 0 -14 18 10 23 12 2 25 5 29 6 4 0 9
-3 12 -8z m-1476 -25 c3 -12 -1 -17 -10 -14 -7 3 -15 13 -16 22 -3 12 1 17 10
14 7 -3 15 -13 16 -22z m2072 -11 c0 -9 -9 -15 -22 -15 -13 0 -117 -7 -232
-14 -151 -10 -211 -18 -217 -28 -7 -11 -11 -10 -18 2 -13 19 -8 23 32 26 26 1
212 22 332 37 79 10 125 7 125 -8z m-800 -20 c19 -23 -6 -47 -43 -43 -36 4
-44 19 -22 42 21 20 49 21 65 1z m-1020 -35 c0 -32 -9 -37 -28 -18 -19 19 -15
48 8 48 16 0 20 -7 20 -30z m1823 -7 c-10 -28 -24 -33 -85 -33 -32 0 -58 -4
-58 -9 0 -4 -77 -8 -171 -9 -107 0 -167 3 -158 9 8 5 30 7 50 3 21 -3 40 -1
43 5 4 6 25 8 51 4 25 -3 50 -1 57 5 7 5 60 13 117 17 84 6 130 13 158 24 1 1
-1 -7 -4 -16z m167 8 c21 -6 17 -8 -25 -13 -54 -7 -61 -5 -50 11 7 12 37 13
75 2z m-1135 -10 c3 -5 1 -13 -5 -16 -15 -9 -43 3 -35 15 8 13 32 13 40 1z
m382 -57 c-3 -3 -12 -4 -19 -1 -8 3 -5 6 6 6 11 1 17 -2 13 -5z m566 -29 c-2
-5 -37 -13 -79 -16 -44 -4 -80 -12 -84 -19 -6 -10 -28 -11 -84 -7 -44 3 -76 2
-76 -4 0 -5 -34 -9 -75 -9 -73 0 -88 7 -62 28 12 10 350 41 422 38 22 0 39 -5
38 -11z m-579 -60 c-6 -16 -28 -20 -79 -16 -35 3 -39 6 -30 20 3 6 31 11 60
11 44 0 53 -3 49 -15z m510 -112 c8 -29 -2 -40 -46 -50 -16 -3 -28 -10 -28
-16 0 -5 18 -42 40 -82 39 -71 40 -73 34 -148 -6 -71 -9 -77 -34 -85 -42 -15
-43 -45 -5 -86 44 -48 74 -39 90 25 16 66 56 149 71 149 8 0 14 -3 14 -7 0 -5
27 -24 59 -43 l58 -34 78 -233 78 -232 -14 -102 -14 -102 -116 -109 c-100 -93
-121 -108 -142 -103 -22 6 -33 37 -147 398 -67 216 -149 477 -182 582 -88 281
-81 300 123 304 75 1 77 0 83 -26z m54 -68 c-3 -3 -9 2 -12 12 -6 14 -5 15 5
6 7 -7 10 -15 7 -18z m238 -1171 c-5 -12 -2 -15 11 -10 14 5 13 2 -3 -11 -75
-62 -95 -75 -111 -68 -17 6 -17 7 0 16 9 6 21 8 26 4 5 -3 12 3 16 14 8 26 44
71 57 71 5 0 7 -7 4 -16z m-253 -288 c25 -19 6 -29 -29 -15 -23 8 -25 12 -14
19 19 12 21 12 43 -4z"/>
<path d="M3510 3315 c0 -25 8 -44 26 -62 32 -32 40 -24 19 17 -14 27 -14 34
-3 41 10 6 9 11 -7 23 -30 23 -35 20 -35 -19z"/>
<path d="M3570 3301 c0 -5 5 -13 10 -16 6 -3 10 -2 10 4 0 5 -4 13 -10 16 -5
3 -10 2 -10 -4z"/>
<path d="M3390 3231 c0 -6 5 -13 10 -16 6 -3 10 1 10 9 0 9 -4 16 -10 16 -5 0
-10 -4 -10 -9z"/>
<path d="M2342 3138 c5 -16 58 -23 58 -9 0 6 -6 8 -14 5 -8 -3 -17 -1 -21 5
-9 15 -28 14 -23 -1z"/>
<path d="M4420 3980 c0 -5 5 -10 10 -10 6 0 10 5 10 10 0 6 -4 10 -10 10 -5 0
-10 -4 -10 -10z"/>
<path d="M3618 3933 c12 -2 32 -2 45 0 12 2 2 4 -23 4 -25 0 -35 -2 -22 -4z"/>
<path d="M3488 3923 c6 -2 18 -2 25 0 6 3 1 5 -13 5 -14 0 -19 -2 -12 -5z"/>
<path d="M3631 3884 c0 -11 3 -14 6 -6 3 7 2 16 -1 19 -3 4 -6 -2 -5 -13z"/>
<path d="M1145 3290 c-3 -5 1 -10 9 -10 9 0 16 5 16 10 0 6 -4 10 -9 10 -6 0
-13 -4 -16 -10z"/>
</g>
</svg>
